<svg xmlns="http://www.w3.org/2000/svg" viewBox="0 0 200 120" width="200" height="120"><path d="M48,5 H152 Q156,5 156,9 V111 Q156,115 152,115 H48 Q44,115 44,111 V9 Q44,5 48,5 Z" fill="none" stroke="#46474A" stroke-width="2.5" stroke-linecap="round" stroke-linejoin="round"></path><path d="M52,18 H148 V102 H52 Z" fill="none" stroke="#46474A" stroke-width="1.5" stroke-linecap="round" stroke-linejoin="round"></path><path d="M32,50 L20,60 L32,70" fill="none" stroke="#46474A" stroke-width="3.5" stroke-linecap="round" stroke-linejoin="round"></path><path d="M168,50 L180,60 L168,70" fill="none" stroke="#46474A" stroke-width="3.5" stroke-linecap="round" stroke-linejoin="round"></path><path d="M84,53 H116 M84,60 H116 M84,67 H116" fill="none" stroke="#46474A" stroke-width="2" stroke-linecap="round" stroke-linejoin="round"></path><path d="M156,34 H163 V47 H156" fill="none" stroke="#46474A" stroke-width="2" stroke-linecap="round" stroke-linejoin="round"></path><path d="M156,51 H163 V64 H156" fill="none" stroke="#46474A" stroke-width="2" stroke-linecap="round" stroke-linejoin="round"></path></svg>