<svg xmlns="http://www.w3.org/2000/svg" viewBox="0 0 200 120" width="200" height="120"><path d="M62,4 Q66,4 66,4 H134 Q138,4 138,8 V112 Q138,116 134,116 H66 Q62,116 62,112 V8 Q62,4 66,4 Z" fill="none" stroke="#46474A" stroke-width="2.5" stroke-linecap="round" stroke-linejoin="round"></path><path d="M70,16 H130" fill="none" stroke="#46474A" stroke-width="1" stroke-linecap="round" stroke-linejoin="round"></path><path d="M84,109 H116" fill="none" stroke="#46474A" stroke-width="2.5" stroke-linecap="round" stroke-linejoin="round"></path><path d="M70,20 H86 V34 H70 Z M90,20 H106 V34 H90 Z M110,20 H126 V34 H110 Z" fill="none" stroke="#46474A" stroke-width="1.5" stroke-linecap="round" stroke-linejoin="round"></path><path d="M70,38 H126 V56 H70 Z" fill="#46474A" stroke="#46474A" stroke-width="2.5" stroke-linecap="round" stroke-linejoin="round"></path><path d="M76,44 H110 M76,51 H96" fill="none" stroke="#46474A" stroke-width="1.5" stroke-linecap="round" stroke-linejoin="round"></path><path d="M70,60 H86 V74 H70 Z M90,60 H106 V74 H90 Z M110,60 H126 V74 H110 Z" fill="none" stroke="#46474A" stroke-width="1.5" stroke-linecap="round" stroke-linejoin="round"></path><path d="M70,78 H86 V92 H70 Z M90,78 H106 V92 H90 Z M110,78 H126 V92 H110 Z" fill="#46474A"></path></svg>