<svg xmlns="http://www.w3.org/2000/svg" viewBox="0 0 200 120" width="200" height="120"><path d="M35,5 H138 V115 H35 Z" fill="#FBFAF6" stroke="#46474A" stroke-width="2" stroke-linecap="round" stroke-linejoin="round"></path><path d="M48,24 H125 M48,34 H125 M48,44 H125 M48,54 H115 M48,64 H122 M48,74 H108" fill="none" stroke="#46474A" stroke-width="1.5" stroke-linecap="round" stroke-linejoin="round"></path><path d="M118,5 H138 V40 L128,32 L118,40 Z" fill="#46474A"></path><path d="M150,100 L172,26" fill="none" stroke="#46474A" stroke-width="3" stroke-linecap="round" stroke-linejoin="round"></path><path d="M172,26 L162,36 L167,42 Z" fill="#46474A"></path><path d="M146,104 L154,96 L160,102 L152,110 Z" fill="#46474A"></path><path d="M52,84 Q64,78 76,84 Q88,90 100,84" fill="none" stroke="#46474A" stroke-width="1.5" stroke-linecap="round" stroke-linejoin="round"></path></svg>